Coordinates
version=1
nRows=10
nColumns=33
inDegrees=yes

Units are S.I. units (second, meters, Newtons, ...)
Angles are in degrees.

endheader
time	ground_thorax_rot_x	ground_thorax_rot_y	ground_thorax_rot_z	ground_thorax_tx	ground_thorax_ty	ground_thorax_tz	clav_prot_r	clav_elev_r	scapula_abduction_r	scapula_elevation_r	scapula_upward_rot_r	scapula_winging_r	shoulder_elv_r	plane_of_elev_r	axial_rot_r	elbow_flexion_r	pro_sup_r	wrist_flex_r	wrist_dev_r	clav_prot_l	clav_elev_l	scapula_abduction_l	scapula_elevation_l	scapula_upward_rot_l	scapula_winging_l	shoulder_elv_l	plane_of_elev_l	axial_rot_l	elbow_flexion_l	pro_sup_l	wrist_flex_l	wrist_dev_l
      1.72000000	      1.78047420	      5.74597783	     -5.67466689	     -0.14040076	      1.00351636	      0.00919225	    -20.10241340	     -9.13120676	    -23.75534950	     -6.81290080	     13.32202292	      1.36142895	     65.28221557	    -49.52280009	     59.81589418	     87.36420745	     13.86365258	     22.37673011	     -1.29446525	     -1.86677189	     -1.14216250	      0.47040180	     -5.82260538	     -2.36829785	      0.16080290	     47.02106605	    -49.82716807	    -22.12122057	     87.35390964	      6.41809404	     -1.66776613	    -18.53309020
      1.73000000	      1.78134302	      5.75005119	     -5.67396684	     -0.14048699	      1.00325896	      0.00922650	    -20.10114040	     -9.13514549	    -23.75511656	     -6.81409933	     13.31859305	      1.36282865	     65.27703941	    -49.52191231	     59.81856893	     87.36619318	     13.86445922	     22.37788342	     -1.29272307	     -1.86823892	     -1.14810590	      0.47227475	     -5.82304162	     -2.37156925	      0.16026364	     47.01372914	    -49.82804260	    -22.12065095	     87.35369744	      6.41879551	     -1.66710949	    -18.53260804
      1.74000000	      2.23793405	      5.48432790	     -5.74115182	     -0.14078448	      1.00373789	      0.00889949	    -19.87806097	     -9.05593076	    -23.75725635	     -6.54177351	     12.73604561	      1.46823998	     66.14243334	    -48.63370886	     59.46839047	     87.54826227	     14.07526465	     22.96370136	      0.93605826	     -1.52659000	     -1.69278462	     -0.67347314	     -4.94950715	     -1.46410515	      0.52477684	     44.52072961	    -51.17038960	    -19.79216699	     87.45180321	      7.77462959	     -0.60243504	    -17.90885514
      1.75000000	      2.23514560	      5.51502011	     -5.70980624	     -0.14085858	      1.00370060	      0.00895116	    -19.86785893	     -9.08185211	    -23.75146631	     -6.55548764	     12.70924219	      1.48761316	     66.08821554	    -48.62835134	     59.48385743	     87.58766159	     14.06985151	     22.96556726	      0.93745419	     -1.52642522	     -1.71394166	     -0.67743771	     -4.93069491	     -1.46523988	      0.51961289	     44.49513470	    -51.14722904	    -19.79839857	     87.45885523	      7.77960056	     -0.60078174	    -17.91184524
      1.76000000	      2.21745182	      5.54305160	     -5.66538183	     -0.14098248	      1.00368457	      0.00897244	    -19.85757489	     -9.10475528	    -23.74606463	     -6.56689470	     12.68195135	      1.50488815	     66.03483740	    -48.62455209	     59.49941791	     87.62729226	     14.06065993	     22.96344629	      0.94084766	     -1.52947379	     -1.74610472	     -0.68406334	     -4.89783415	     -1.45693322	      0.52041793	     44.47288259	    -51.10500095	    -19.79752306	     87.47078606	      7.78332593	     -0.60160024	    -17.91477240
      1.77000000	      2.21002941	      5.58581218	     -5.62041143	     -0.14104083	      1.00366035	      0.00901676	    -19.84507370	     -9.13003537	    -23.73466776	     -6.58104865	     12.65773418	      1.52268522	     65.98351035	    -48.61486644	     59.51162456	     87.66475857	     14.04766308	     22.95669190	      0.94574866	     -1.53353712	     -1.77253169	     -0.68948856	     -4.86689744	     -1.44052160	      0.51685474	     44.46042502	    -51.06460885	    -19.78730900	     87.48142133	      7.78598561	     -0.60455798	    -17.91635352
      1.78000000	      2.19211524	      5.62623378	     -5.56498023	     -0.14113391	      1.00364777	      0.00903006	    -19.83243163	     -9.15510963	    -23.71991279	     -6.59748857	     12.63905264	      1.53925356	     65.93652724	    -48.59995246	     59.51883234	     87.70243637	     14.03134814	     22.94631109	      0.95151463	     -1.53855848	     -1.80499638	     -0.69807784	     -4.82800217	     -1.41820147	      0.51851291	     44.45165044	    -51.01195420	    -19.77350899	     87.49574033	      7.78773325	     -0.60858154	    -17.91746007
      1.79000000	      2.18464986	      5.67348016	     -5.50700904	     -0.14118708	      1.00360425	      0.00906926	    -19.81874235	     -9.18432119	    -23.69851333	     -6.61879133	     12.62519298	      1.55707477	     65.89168770	    -48.57669647	     59.52146673	     87.73930146	     14.01344619	     22.93353874	      0.95772968	     -1.54331928	     -1.83262228	     -0.70686495	     -4.79232616	     -1.39302658	      0.51900313	     44.44871671	    -50.96169572	    -19.75677192	     87.51066981	      7.78864729	     -0.61290763	    -17.91756601
      1.80000000	      2.16883195	      5.71683567	     -5.44045082	     -0.14125373	      1.00359341	      0.00907970	    -19.80505363	     -9.21591265	    -23.67278452	     -6.64419964	     12.61676982	      1.57419699	     65.84932926	    -48.54622063	     59.51809051	     87.77772098	     13.99229165	     22.91675923	      0.96463060	     -1.54757185	     -1.86510050	     -0.72070333	     -4.75021480	     -1.36213808	      0.52177521	     44.44867343	    -50.89961142	    -19.73824473	     87.53013010	      7.78889447	     -0.61729832	    -17.91693842
      1.81000000	      1.80036929	      6.00904955	     -5.81829606	     -0.14156821	      1.00334104	      0.00906520	    -19.94723530	     -9.56823006	    -24.00567843	     -6.88459009	     12.34418600	      1.79835304	     65.00335018	    -48.50772453	     58.75791856	     88.08684340	     11.05025254	     19.76194541	      2.10896925	     -1.18772113	     -1.45864398	     -1.49250467	     -4.92755469	     -0.87854262	      0.89106111	     44.03013530	    -50.55242027	    -19.12461995	     87.75832492	      8.16655322	     -0.54493772	    -17.21365101
